<?xml version="1.0" standalone="no"?><!DOCTYPE svg PUBLIC "-//W3C//DTD SVG 1.1//EN" "http://www.w3.org/Graphics/SVG/1.1/DTD/svg11.dtd"><svg t="1763557317819" class="icon" viewBox="0 0 1024 1024" version="1.1" xmlns="http://www.w3.org/2000/svg" p-id="5099" xmlns:xlink="http://www.w3.org/1999/xlink" width="200" height="200"><path d="M511.904451 916.805659c-5.484903-0.209614-10.655385 0.314421-15.72106-0.722004-16.652679-3.307245-28.251328-18.830337-26.690867-36.007051 1.548816-17.176714 15.627899-30.312533 32.699805-30.522148 35.18024-0.314421 69.638475-5.380096 103.153447-15.930674 40.455529-12.833043 77.079777-32.804613 110.094003-59.390673 17.898718-14.486666 34.039007-30.731762 48.735287-48.525673 12.413815-14.999056 30.207726-18.422754 45.416397-8.896955 17.071907 10.655385 21.112802 33.724586 8.279758 49.666905-28.251328 34.970625-61.463523 64.35154-99.426973 88.364005-44.077195 27.832099-91.776057 46.150046-142.886971 55.559391-21.310771 3.831281-42.633187 5.997293-63.629536 6.416522z m-5.892486-809.72777c8.896956-0.419228 17.491135 0.617197 25.037244 5.799324 11.691811 8.070144 17.281521 22.55681 13.764662 36.216665-3.516859 13.764662-14.801087 23.488429-28.868525 25.142052-9.211377 1.036425-18.411108 0.51239-27.622486 1.141232-36.519441 2.585241-71.69968 10.864999-105.540718 24.82763-34.656204 14.381859-66.016808 34.039007-94.046877 59.076252-13.450241 12.006232-25.968863 24.82763-37.346252 38.801906-11.37739 13.962631-27.517678 18.108332-42.004344 11.074613-19.039951-9.211377-25.351665-32.070963-13.240627-49.457291 6.626136-9.514153 14.69628-18.003525 22.661618-26.388091 33.526617-35.285047 72.223716-63.734343 115.881682-85.149921 39.314296-19.342727 80.80625-31.558573 124.161442-37.451059 15.523091-2.177658 31.348959-3.109276 47.186471-3.621667z m47.38444 287.124788c-24.524854-0.209614-45.626011 6.521329-65.492773 17.071907-32.490191 17.281521-57.73705 42.213958-75.426154 74.494536-13.869469 25.351665-21.415578 52.356954-17.071907 81.737868 2.794855 18.935144 11.074614 34.865818 26.178477 46.767244 14.486666 11.37739 31.453766 15.523091 49.352484 15.72106 21.007995 0.314421 40.76995-5.170482 59.49548-14.277052 35.389854-17.176714 62.488304-43.250384 81.330285-77.603812 13.869469-25.351665 21.310771-52.461761 16.9671-81.737869-2.899662-19.761955-11.691811-36.216665-28.14652-48.106444-14.486666-10.550578-31.139345-14.277052-47.186472-14.067438zM326.803522 552.088704c0.628842-44.077195 14.69628-83.81072 39.628717-119.81777 25.456473-36.833862 58.039826-65.387966 98.495355-84.847145 23.488429-11.272583 48.211252-18.21314 74.389728-20.181184 33.9342-2.480434 65.59758 4.134057 94.570912 22.242389 2.899662 1.75843 3.307245 1.141233 3.516859-1.968044 1.444009-25.864056 3.004469-51.832918 4.448478-77.708619 1.444009-25.142051 3.004469-50.284103 4.448478-75.426154l5.275289-89.703206c0.826811-14.172245 1.24604-28.449297 2.899662-42.528379 2.480434-21.625192 25.037244-34.761011 45.323235-26.795674 45.416397 18.003525 87.537193 41.899537 126.234292 71.909295a512.882708 512.882708 0 0 1 49.666906 43.867581c22.347196 22.55681 42.52838 46.976857 60.427098 73.248496 14.894249 21.939613 3.307245 49.666905-22.661618 53.393379-13.962631 1.968044-25.037244-3.726474-33.002581-15.418285a440.613576 440.613576 0 0 0-57.108208-68.287628c-30.009757-29.276108-63.524729-54.010576-100.463398-73.877338-4.040895-2.177658-4.238864-2.177658-4.553285 2.480434-0.931618 14.591473-1.863237 29.182946-2.794855 43.657967-1.24604 20.274345-2.480434 40.560336-3.621667 60.939488-0.826811 13.659855-1.548816 27.412871-2.375626 41.072725-1.24604 20.274345-2.480434 40.560336-3.621667 60.939488-0.826811 13.869469-1.548816 27.622485-2.375627 41.491954l-4.343671 73.248497c-0.51239 9.316184-1.444009 18.72553-1.548815 28.041713-0.51239 40.350722-12.623429 77.079777-33.829393 111.013977-24.722823 39.419103-57.841857 69.836444-99.229004 91.158859-24.105626 12.413815-49.666905 20.076376-76.777001 22.452003-27.936907 2.375627-54.942195-1.036425-80.398667-12.93785-37.975095-17.689104-62.488304-47.081664-74.284921-87.222772-4.343671-14.591473-6.416522-29.380915-6.311715-44.496423z m185.205736 471.911296c-85.569149 0-166.060978-20.181183-241.591939-60.427098-35.797437-19.039951-68.602049-42.318765-98.914583-69.219246-43.04077-38.277871-78.640237-82.56468-106.670306-132.848783-28.658911-51.320528-48.106445-106.053109-57.73705-164.197741-5.694517-34.353428-8.070144-68.904825-6.730943-103.677482 2.585241-68.706856 18.108332-134.304436 47.081665-196.79274 18.830337-40.665143 42.633187-78.221009 71.396904-112.679245 42.726348-51.215721 93.534486-92.602868 152.401124-124.056634 43.762774-23.383622 90.017627-40.141107 138.648107-49.969681 26.178477-5.275289 52.65973-8.384566 79.467049-9.61896C515.537763-0.733649 541.506625 0.407583 567.475488 2.78321c18.72553 1.75843 29.182946 14.486666 31.768187 26.690867 4.553285 22.137582-12.518622 42.213958-34.970625 40.455528-20.693574-1.653623-41.28234-2.899662-62.080721-2.480433-54.837388 1.24604-107.811538 11.796618-158.619676 32.804612-44.904006 18.515916-85.976732 43.459998-122.612626 75.530961-72.118909 63.221953-119.712963 141.536124-141.955352 234.872642-5.694517 23.698043-8.792149 47.803669-10.445771 72.118909a433.144326 433.144326 0 0 0 0.314421 63.524729c4.134057 53.486541 17.281521 104.807069 40.141107 153.437549 17.281521 36.624248 38.801906 70.360479 65.08519 101.09224 33.9342 39.628717 73.562917 72.421685 119.084121 98.087772 41.28234 23.383622 85.149921 40.0363 131.70755 49.038063 23.698043 4.553285 47.594055 7.243333 71.699681 8.174951 53.696155 1.863237 106.053109-5.380096 156.954408-22.452003 53.696155-18.108332 102.326635-45.416397 145.577019-82.157097 48.013283-40.665143 85.871925-89.40043 113.401249-145.89144 20.588766-42.318765 34.039007-86.803544 40.141107-133.570787 2.794855-21.520385 4.553285-43.250384 4.134057-64.980383-0.722004-45.416397-7.557754-89.91282-21.834806-133.268011-6.730943-20.379152 4.448478-40.350722 24.722823-44.799199 16.862293-3.621666 33.42181 6.1021 39.104682 23.174008 9.211377 27.832099 15.825867 56.176589 19.971569 85.149921 4.448478 30.836569 6.206908 61.871106 5.065675 93.022096-2.480434 64.561155-16.245096 126.537068-42.213958 185.822933-18.411108 42.109151-42.004344 81.120671-70.87287 116.918108-40.245915 49.969681-88.259197 90.949245-143.818589 122.915402-42.109151 24.210433-86.908351 42.109151-134.199629 53.591348-26.900481 6.521329-54.115383 10.760192-81.633062 12.728236-12.833043 1.141233-25.968863 1.653623-39.104682 1.653623z" p-id="5100" fill="#2c2c2c"></path></svg>